<svg width="28" height="27" viewBox="0 0 28 27" fill="none" xmlns="http://www.w3.org/2000/svg">
<path fill-rule="evenodd" clip-rule="evenodd" d="M0.666992 13.4167C0.666992 6.00685 6.67384 0 14.0837 0C21.4935 0 27.5003 6.00685 27.5003 13.4167C27.5003 20.8265 21.4935 26.8333 14.0837 26.8333C6.67384 26.8333 0.666992 20.8265 0.666992 13.4167Z" fill="#FF0000"/>
<path fill-rule="evenodd" clip-rule="evenodd" d="M20.9403 10.1035C20.7757 9.47126 20.2907 8.97338 19.675 8.8044C18.559 8.49731 14.0838 8.49731 14.0838 8.49731C14.0838 8.49731 9.60855 8.49731 8.49252 8.8044C7.87674 8.97338 7.39179 9.47126 7.22721 10.1035C6.92822 11.2494 6.92822 13.6404 6.92822 13.6404C6.92822 13.6404 6.92822 16.0312 7.22721 17.1772C7.39179 17.8095 7.87674 18.3074 8.49252 18.4764C9.60855 18.7834 14.0838 18.7834 14.0838 18.7834C14.0838 18.7834 18.559 18.7834 19.675 18.4764C20.2907 18.3074 20.7757 17.8095 20.9403 17.1772C21.2393 16.0312 21.2393 13.6404 21.2393 13.6404C21.2393 13.6404 21.2393 11.2494 20.9403 10.1035Z" fill="white"/>
<path fill-rule="evenodd" clip-rule="evenodd" d="M12.7419 16.0999V11.6277L16.3197 13.8639L12.7419 16.0999Z" fill="#FF0000"/>
</svg>
