<svg width="22" height="19" viewBox="0 0 22 19" fill="none" xmlns="http://www.w3.org/2000/svg">
<g clip-path="url(#clip0)">
<path d="M20.1872 6.09242H19.0621C19.0535 6.08403 19.0455 6.07538 19.0363 6.06737L12.9026 0.697792C12.6263 0.455839 12.1781 0.455839 11.9017 0.697792C11.6253 0.939745 11.6253 1.33203 11.9017 1.57398L17.0631 6.09238H4.91021L10.0717 1.57398C10.348 1.33203 10.348 0.939745 10.0717 0.697792C9.79531 0.455839 9.34716 0.455839 9.07077 0.697792L2.93706 6.06737C2.92786 6.07542 2.91981 6.08407 2.91121 6.09242H1.78617C0.875579 6.09242 0.134766 6.74094 0.134766 7.53805V8.36414C0.134766 9.12344 0.806864 9.74784 1.6576 9.80547L3.01409 16.9306C3.18547 17.8305 4.06621 18.4837 5.10842 18.4837H17.0722C18.122 18.4837 19.0256 17.7976 19.1741 16.8879L20.33 9.80443C21.174 9.74082 21.8386 9.11913 21.8386 8.36414V7.53805C21.8386 6.74094 21.0978 6.09242 20.1872 6.09242ZM20.4232 8.36414C20.4232 8.47803 20.3173 8.57065 20.1873 8.57065C19.97 8.57065 13.42 8.57065 13.1099 8.57065C12.7191 8.57065 12.4022 8.84805 12.4022 9.19023C12.4022 9.53238 12.7191 9.80981 13.1099 9.80981H18.8994L17.773 16.7127C17.7234 17.0159 17.4223 17.2446 17.0723 17.2446H5.10842C4.76103 17.2446 4.46744 17.0269 4.4103 16.7269L3.09344 9.80981H8.86349C9.25432 9.80981 9.57123 9.53242 9.57123 9.19023C9.57123 8.84808 9.25437 8.57065 8.86349 8.57065C8.55298 8.57065 2.00253 8.57065 1.78617 8.57065C1.65607 8.57065 1.55026 8.47799 1.55026 8.36414V7.53805C1.55026 7.42416 1.65611 7.33154 1.78617 7.33154H20.1873C20.3174 7.33154 20.4232 7.4242 20.4232 7.53805V8.36414Z" fill="#E33439"/>
<path d="M6.74046 11.0489C6.34962 11.0489 6.03271 11.3263 6.03271 11.6685V15.3859C6.03271 15.728 6.34958 16.0055 6.74046 16.0055C7.13134 16.0055 7.44821 15.7281 7.44821 15.3859V11.6684C7.44821 11.3263 7.13134 11.0489 6.74046 11.0489Z" fill="#E33439"/>
<path d="M10.987 11.0489C10.5962 11.0489 10.2793 11.3263 10.2793 11.6685V15.3859C10.2793 15.728 10.5962 16.0055 10.987 16.0055C11.3779 16.0055 11.6948 15.7281 11.6948 15.3859V11.6684C11.6948 11.3263 11.3779 11.0489 10.987 11.0489Z" fill="#E33439"/>
<path d="M15.2331 11.0489C14.8423 11.0489 14.5254 11.3263 14.5254 11.6685V15.3859C14.5254 15.728 14.8423 16.0055 15.2331 16.0055C15.624 16.0055 15.9409 15.7281 15.9409 15.3859V11.6684C15.9409 11.3263 15.624 11.0489 15.2331 11.0489Z" fill="#E33439"/>
</g>
<defs>
<clipPath id="clip0">
<rect x="0.134766" width="21.7038" height="19" fill="white"/>
</clipPath>
</defs>
</svg>
