<svg xmlns="http://www.w3.org/2000/svg" xmlns:xlink="http://www.w3.org/1999/xlink">
<symbol id="icon-fb" viewBox="0 0 27 27"><path fill-rule="evenodd" clip-rule="evenodd" d="M0 13.4167C0 6.00685 6.00685 0 13.4167 0C20.8265 0 26.8333 6.00685 26.8333 13.4167C26.8333 20.8265 20.8265 26.8333 13.4167 26.8333C6.00685 26.8333 0 20.8265 0 13.4167Z" fill="#3B5998"/>
<path fill-rule="evenodd" clip-rule="evenodd" d="M14.8151 21.3053V14.0059H16.8301L17.0971 11.4905H14.8151L14.8186 10.2315C14.8186 9.57547 14.8809 9.22394 15.8232 9.22394H17.0828V6.70825H15.0676C12.647 6.70825 11.795 7.92849 11.795 9.98056V11.4908H10.2861V14.0062H11.795V21.3053H14.8151Z" fill="white"/>
</symbol>
<symbol id="icon-vk" viewBox="0 0 28 27"><path fill-rule="evenodd" clip-rule="evenodd" d="M0.833496 13.4167C0.833496 6.00685 6.84034 0 14.2502 0C21.66 0 27.6668 6.00685 27.6668 13.4167C27.6668 20.8265 21.66 26.8333 14.2502 26.8333C6.84034 26.8333 0.833496 20.8265 0.833496 13.4167Z" fill="#4C6C91"/>
<path fill-rule="evenodd" clip-rule="evenodd" d="M14.9521 17.8196C14.9521 17.8196 15.2104 17.7914 15.3427 17.6519C15.4638 17.5241 15.4596 17.283 15.4596 17.283C15.4596 17.283 15.4435 16.1569 15.9762 15.9906C16.5011 15.8271 17.1752 17.0796 17.8905 17.5613C18.4309 17.9254 18.8411 17.8457 18.8411 17.8457L20.7527 17.8196C20.7527 17.8196 21.7522 17.7591 21.2783 16.9875C21.2391 16.9243 21.0018 16.4166 19.8574 15.3736C18.6584 14.2818 18.8194 14.4584 20.2627 12.5696C21.1418 11.4195 21.4932 10.7173 21.3833 10.417C21.279 10.1298 20.6323 10.2061 20.6323 10.2061L18.4806 10.2192C18.4806 10.2192 18.321 10.1979 18.2027 10.2673C18.0872 10.3353 18.0123 10.494 18.0123 10.494C18.0123 10.494 17.6722 11.3838 17.2179 12.1409C16.2596 13.7377 15.8768 13.8222 15.72 13.7232C15.3553 13.4917 15.4463 12.7943 15.4463 12.2989C15.4463 10.751 15.6857 10.1058 14.9808 9.93884C14.747 9.88318 14.5748 9.84677 13.9764 9.84059C13.2085 9.83303 12.559 9.84333 12.1908 10.0199C11.9458 10.1374 11.7568 10.3999 11.8723 10.415C12.0144 10.4335 12.3364 10.5002 12.5072 10.7283C12.7277 11.023 12.72 11.684 12.72 11.684C12.72 11.684 12.8467 13.5061 12.4239 13.7322C12.1341 13.8875 11.7365 13.5707 10.8819 12.1217C10.4444 11.3796 10.114 10.5593 10.114 10.5593C10.114 10.5593 10.0503 10.406 9.93623 10.3236C9.79834 10.224 9.60585 10.1931 9.60585 10.1931L7.56127 10.2061C7.56127 10.2061 7.25399 10.2144 7.1413 10.3456C7.04121 10.4617 7.1336 10.7029 7.1336 10.7029C7.1336 10.7029 8.7344 14.3794 10.5473 16.2324C12.2097 17.9309 14.0968 17.8196 14.0968 17.8196H14.9521Z" fill="white"/>
</symbol>
<symbol id="icon-youtube" viewBox="0 0 28 27"><path fill-rule="evenodd" clip-rule="evenodd" d="M0.666992 13.4167C0.666992 6.00685 6.67384 0 14.0837 0C21.4935 0 27.5003 6.00685 27.5003 13.4167C27.5003 20.8265 21.4935 26.8333 14.0837 26.8333C6.67384 26.8333 0.666992 20.8265 0.666992 13.4167Z" fill="#FF0000"/>
<path fill-rule="evenodd" clip-rule="evenodd" d="M20.9403 10.1035C20.7757 9.47126 20.2907 8.97338 19.675 8.8044C18.559 8.49731 14.0838 8.49731 14.0838 8.49731C14.0838 8.49731 9.60855 8.49731 8.49252 8.8044C7.87674 8.97338 7.39179 9.47126 7.22721 10.1035C6.92822 11.2494 6.92822 13.6404 6.92822 13.6404C6.92822 13.6404 6.92822 16.0312 7.22721 17.1772C7.39179 17.8095 7.87674 18.3074 8.49252 18.4764C9.60855 18.7834 14.0838 18.7834 14.0838 18.7834C14.0838 18.7834 18.559 18.7834 19.675 18.4764C20.2907 18.3074 20.7757 17.8095 20.9403 17.1772C21.2393 16.0312 21.2393 13.6404 21.2393 13.6404C21.2393 13.6404 21.2393 11.2494 20.9403 10.1035Z" fill="white"/>
<path fill-rule="evenodd" clip-rule="evenodd" d="M12.7419 16.0999V11.6277L16.3197 13.8639L12.7419 16.0999Z" fill="#FF0000"/>
</symbol>
<symbol id="icon-insta" viewBox="0 0 28 27">
<svg width="28" height="27" viewBox="0 0 28 27" fill="none" xmlns="http://www.w3.org/2000/svg">
<path fill-rule="evenodd" clip-rule="evenodd" d="M0.500488 13.4167C0.500488 6.00685 6.50733 0 13.9172 0C21.327 0 27.3338 6.00685 27.3338 13.4167C27.3338 20.8265 21.327 26.8333 13.9172 26.8333C6.50733 26.8333 0.500488 20.8265 0.500488 13.4167Z" fill="white"/>
<path fill-rule="evenodd" clip-rule="evenodd" d="M0.500488 13.4167C0.500488 6.00685 6.50733 0 13.9172 0C21.327 0 27.3338 6.00685 27.3338 13.4167C27.3338 20.8265 21.327 26.8333 13.9172 26.8333C6.50733 26.8333 0.500488 20.8265 0.500488 13.4167Z" fill="#F9FAFE"/>
<path fill-rule="evenodd" clip-rule="evenodd" d="M13.9179 6.26111C11.9746 6.26111 11.7307 6.26961 10.9674 6.30434C10.2057 6.33922 9.68569 6.45983 9.23071 6.63678C8.76008 6.81955 8.36085 7.06403 7.96312 7.46191C7.56509 7.85965 7.3206 8.25887 7.13724 8.72935C6.95984 9.18448 6.83909 9.70461 6.8048 10.4661C6.77066 11.2294 6.76172 11.4734 6.76172 13.4167C6.76172 15.3601 6.77037 15.6032 6.80495 16.3665C6.83998 17.1283 6.96059 17.6482 7.13739 18.1032C7.32031 18.5739 7.56479 18.9731 7.96267 19.3708C8.36026 19.7689 8.75948 20.0139 9.22981 20.1967C9.68509 20.3736 10.2052 20.4943 10.9668 20.5291C11.7301 20.5639 11.9739 20.5724 13.9171 20.5724C15.8605 20.5724 16.1037 20.5639 16.867 20.5291C17.6287 20.4943 18.1493 20.3736 18.6046 20.1967C19.0751 20.0139 19.4737 19.7689 19.8713 19.3708C20.2693 18.9731 20.5138 18.5739 20.6972 18.1034C20.8731 17.6482 20.9938 17.1281 21.0296 16.3666C21.0639 15.6034 21.0728 15.3601 21.0728 13.4167C21.0728 11.4734 21.0639 11.2295 21.0296 10.4662C20.9938 9.70446 20.8731 9.18448 20.6972 8.7295C20.5138 8.25887 20.2693 7.85965 19.8713 7.46191C19.4732 7.06388 19.0752 6.8194 18.6041 6.63678C18.148 6.45983 17.6277 6.33922 16.8659 6.30434C16.1026 6.26961 15.8597 6.26111 13.9157 6.26111H13.9179ZM13.2761 7.55063C13.4666 7.55033 13.6792 7.55063 13.918 7.55063C15.8286 7.55063 16.055 7.55749 16.8095 7.59177C17.5072 7.62368 17.8858 7.74025 18.1381 7.8382C18.472 7.96789 18.7101 8.12293 18.9604 8.37338C19.2108 8.62382 19.3658 8.86235 19.4958 9.19627C19.5938 9.44821 19.7105 9.82686 19.7423 10.5245C19.7765 11.2789 19.784 11.5055 19.784 13.4151C19.784 15.3248 19.7765 15.5514 19.7423 16.3057C19.7104 17.0034 19.5938 17.382 19.4958 17.634C19.3661 17.9679 19.2108 18.2057 18.9604 18.456C18.7099 18.7064 18.4721 18.8614 18.1381 18.9911C17.8861 19.0895 17.5072 19.2058 16.8095 19.2377C16.0552 19.272 15.8286 19.2795 13.918 19.2795C12.0073 19.2795 11.7809 19.272 11.0265 19.2377C10.3289 19.2055 9.95022 19.0889 9.69784 18.991C9.36391 18.8613 9.12539 18.7063 8.87494 18.4558C8.62449 18.2054 8.46945 17.9674 8.33946 17.6334C8.24152 17.3814 8.12479 17.0028 8.09304 16.3051C8.05875 15.5508 8.05189 15.3242 8.05189 13.4133C8.05189 11.5025 8.05875 11.2771 8.09304 10.5227C8.12494 9.82508 8.24152 9.44642 8.33946 9.19419C8.46916 8.86026 8.62449 8.62174 8.87494 8.37129C9.12539 8.12084 9.36391 7.9658 9.69784 7.83581C9.95007 7.73742 10.3289 7.62114 11.0265 7.58909C11.6867 7.55928 11.9425 7.55033 13.2761 7.54884V7.55063ZM17.7375 8.73877C17.2635 8.73877 16.8789 9.12293 16.8789 9.59714C16.8789 10.0712 17.2635 10.4558 17.7375 10.4558C18.2116 10.4558 18.5962 10.0712 18.5962 9.59714C18.5962 9.12308 18.2116 8.73847 17.7375 8.73847V8.73877ZM13.918 9.74204C11.8886 9.74204 10.2432 11.3874 10.2432 13.4168C10.2432 15.4461 11.8886 17.0907 13.918 17.0907C15.9473 17.0907 17.5921 15.4461 17.5921 13.4168C17.5921 11.3874 15.9472 9.74204 13.9178 9.74204H13.918ZM13.9179 11.0315C15.2352 11.0315 16.3031 12.0993 16.3031 13.4167C16.3031 14.734 15.2352 15.8019 13.9179 15.8019C12.6005 15.8019 11.5327 14.734 11.5327 13.4167C11.5327 12.0993 12.6005 11.0315 13.9179 11.0315Z" fill="black"/>
</svg>
</symbol>
<symbol id="next-arrow" viewBox="0 0 21 36"><path fill-rule="evenodd" clip-rule="evenodd" d="M13.7225 17.8915L0.208103 3.79535L3.84684 0L21 17.8915L3.63873 36L0 32.2046L13.7225 17.8915Z"/>
</symbol>
<symbol id="prev-arrow" viewBox="0 0 21 36"><path fill-rule="evenodd" clip-rule="evenodd" d="M7.27747 18.1085L20.7919 32.2046L17.1532 36L1.56412e-06 18.1085L17.3613 -3.18108e-07L21 3.79535L7.27747 18.1085Z"/>
</symbol>
<symbol id="shopping-basket-slider" viewBox="0 0 22 19">
<svg>
<g clip-path="url(#clip0)">
<path d="M20.1872 6.09242H19.0621C19.0535 6.08403 19.0455 6.07538 19.0363 6.06737L12.9026 0.697792C12.6263 0.455839 12.1781 0.455839 11.9017 0.697792C11.6253 0.939745 11.6253 1.33203 11.9017 1.57398L17.0631 6.09238H4.91021L10.0717 1.57398C10.348 1.33203 10.348 0.939745 10.0717 0.697792C9.79531 0.455839 9.34716 0.455839 9.07077 0.697792L2.93706 6.06737C2.92786 6.07542 2.91981 6.08407 2.91121 6.09242H1.78617C0.875579 6.09242 0.134766 6.74094 0.134766 7.53805V8.36414C0.134766 9.12344 0.806864 9.74784 1.6576 9.80547L3.01409 16.9306C3.18547 17.8305 4.06621 18.4837 5.10842 18.4837H17.0722C18.122 18.4837 19.0256 17.7976 19.1741 16.8879L20.33 9.80443C21.174 9.74082 21.8386 9.11913 21.8386 8.36414V7.53805C21.8386 6.74094 21.0978 6.09242 20.1872 6.09242ZM20.4232 8.36414C20.4232 8.47803 20.3173 8.57065 20.1873 8.57065C19.97 8.57065 13.42 8.57065 13.1099 8.57065C12.7191 8.57065 12.4022 8.84805 12.4022 9.19023C12.4022 9.53238 12.7191 9.80981 13.1099 9.80981H18.8994L17.773 16.7127C17.7234 17.0159 17.4223 17.2446 17.0723 17.2446H5.10842C4.76103 17.2446 4.46744 17.0269 4.4103 16.7269L3.09344 9.80981H8.86349C9.25432 9.80981 9.57123 9.53242 9.57123 9.19023C9.57123 8.84808 9.25437 8.57065 8.86349 8.57065C8.55298 8.57065 2.00253 8.57065 1.78617 8.57065C1.65607 8.57065 1.55026 8.47799 1.55026 8.36414V7.53805C1.55026 7.42416 1.65611 7.33154 1.78617 7.33154H20.1873C20.3174 7.33154 20.4232 7.4242 20.4232 7.53805V8.36414Z" fill="#E33439"/>
<path d="M6.74046 11.0489C6.34962 11.0489 6.03271 11.3263 6.03271 11.6685V15.3859C6.03271 15.728 6.34958 16.0055 6.74046 16.0055C7.13134 16.0055 7.44821 15.7281 7.44821 15.3859V11.6684C7.44821 11.3263 7.13134 11.0489 6.74046 11.0489Z" fill="#E33439"/>
<path d="M10.987 11.0489C10.5962 11.0489 10.2793 11.3263 10.2793 11.6685V15.3859C10.2793 15.728 10.5962 16.0055 10.987 16.0055C11.3779 16.0055 11.6948 15.7281 11.6948 15.3859V11.6684C11.6948 11.3263 11.3779 11.0489 10.987 11.0489Z" fill="#E33439"/>
<path d="M15.2331 11.0489C14.8423 11.0489 14.5254 11.3263 14.5254 11.6685V15.3859C14.5254 15.728 14.8423 16.0055 15.2331 16.0055C15.624 16.0055 15.9409 15.7281 15.9409 15.3859V11.6684C15.9409 11.3263 15.624 11.0489 15.2331 11.0489Z" fill="#E33439"/>
</g>
<defs>
<clipPath id="clip0">
<rect x="0.134766" width="21.7038" height="19" fill="white"/>
</clipPath>
</defs>
</svg>
</symbol>
</svg>
